<svg viewBox="0 0 19.267 22.105" xmlns="http://www.w3.org/2000/svg"><g data-name="Layer 2"><path d="M18.932 6.2h-5.864V.335A.335.335 0 0 0 12.733 0H.335A.335.335 0 0 0 0 .335v12.4a.335.335 0 0 0 .335.335h1.919v2.5a.335.335 0 0 0 .531.272L6.2 13.387v5.545a.334.334 0 0 0 .335.334h6.091l3.857 2.776a.334.334 0 0 0 .2.063.338.338 0 0 0 .335-.335v-2.5h1.919a.334.334 0 0 0 .335-.334V6.534a.335.335 0 0 0-.34-.334ZM6.339 12.461l-3.415 2.457v-2.185a.335.335 0 0 0-.335-.335H.67V.67H12.4V12.4H6.534a.331.331 0 0 0-.195.061ZM18.6 18.6h-1.922a.335.335 0 0 0-.335.335v2.185l-3.415-2.46a.331.331 0 0 0-.2-.063H6.869v-5.529h5.864a.335.335 0 0 0 .335-.335V6.869H18.6ZM10.106 6.869h-3.39a.335.335 0 0 1 0-.67h3.39a.335.335 0 0 1 0 .67ZM2.961 6.2h1.968a.335.335 0 1 1 0 .67H2.961a.335.335 0 0 1 0-.67Zm7.145-2.457H8.5a.335.335 0 0 1 0-.669h1.6a.335.335 0 0 1 .006.668Zm-7.145-.67h3.755a.335.335 0 0 1 0 .669H2.961a.335.335 0 0 1 0-.669Zm4.912 6.922H2.961a.335.335 0 0 1 0-.67h4.912a.335.335 0 0 1 0 .67Z" data-name="Layer 1" fill="#987284" class="fill-1a171b"></path></g></svg>