<svg viewBox="0 0 320 512" xmlns="http://www.w3.org/2000/svg">
    <path d="M302.1 358.1c-8.9 49.7-50.7 81.3-110.1 88.3V480c0 17.67-14.28 32-31.96 32S128 497.7 128 480v-34.96c-.443-.065-.836-.031-1.281-.098-26.19-3.766-53.69-13.2-77.94-21.53l-11.03-3.766C21.03 414 12.03 395.8 17.69 379.1s23.88-25.73 40.56-20.08l11.31 3.859c21.59 7.406 46.03 15.81 66.41 18.73 47.09 6.953 97.06-.844 103.1-34.09 5.188-28.55-11.16-39.89-87.53-60.7L136.5 282.7C92.59 270.4 1.25 244.9 17.97 153 26.82 104.1 68.44 72.48 128 65.51V32c0-17.67 14.33-32 32.02-32S192 14.33 192 32v34.95c.441.063.84.045 1.281.111 16.91 2.531 36.22 7.47 60.72 15.55 16.81 5.531 25.94 23.61 20.41 40.41-5.531 16.77-23.69 25.86-40.41 20.38-20.72-6.812-37.12-11.08-50.16-13.02C137 123.4 86.97 131.2 80.91 164.5 76.5 188.8 85.66 202 153.8 221l14.59 4.016C228.3 241.4 318.9 266.1 302.1 358.1z"
          fill="#987284" class="fill-000000"></path>
</svg>